<?xml version="1.0" encoding="utf-8"?>
<!-- Generator: Adobe Illustrator 25.1.0, SVG Export Plug-In . SVG Version: 6.00 Build 0)  -->
<svg version="1.1" id="Capa_1" xmlns="http://www.w3.org/2000/svg" xmlns:xlink="http://www.w3.org/1999/xlink" x="0px" y="0px"
	 viewBox="0 0 121.6 121.6" style="enable-background:new 0 0 121.6 121.6;" xml:space="preserve">
<style type="text/css">
	.st0{fill:#122932;}
</style>
<g>
	<path class="st0" d="M30,108.8c9,4.6,19.1,7,29.2,7.2c0.5,0,1.1,0,1.6,0c10.2,0,20.3-2.2,29.5-6.6c8.4-4,16-10,21.6-17.5
		c6.4-8.6,9.7-18.9,9.7-29.6c0-6.8,0-13.5,0-20.3c0-7.4,0-14.7,0-22.1c0-2.6,0-5.2,0-7.7c0-4.7-4.7-7.8-9-6.1l-22.8,9.5
		c-1.5,0.6-3.2,0.7-4.7,0.1c-7.4-2.9-15.6-4.4-24.3-4.4s-16.9,1.6-24.3,4.4c-1.5,0.6-3.2,0.5-4.7-0.1L9,6.4c-4.3-1.8-9,1.4-9,6.1
		c0,3.5,0,7.1,0,10.6c0,7.3,0,14.6,0,22c0,6.2,0,12.3,0,18.5c0,9.9,3.2,19.5,8.9,27.5C14.3,98.6,21.7,104.6,30,108.8z M83,62.5
		c5.5,0,10,4.5,10,10s-4.5,10-10,10s-10-4.5-10-10C73,66.9,77.5,62.5,83,62.5z M38.6,62.5c5.5,0,10,4.5,10,10s-4.5,10-10,10
		s-10-4.5-10-10C28.6,66.9,33.1,62.5,38.6,62.5z"/>
</g>
</svg>
