<?xml version="1.0" encoding="utf-8"?>
<!-- Generator: Adobe Illustrator 25.0.1, SVG Export Plug-In . SVG Version: 6.00 Build 0)  -->
<svg version="1.1" id="Capa_1" xmlns="http://www.w3.org/2000/svg" xmlns:xlink="http://www.w3.org/1999/xlink" x="0px" y="0px"
	 viewBox="0 0 512 512" style="enable-background:new 0 0 512 512;" xml:space="preserve">
<style type="text/css">
	.st0{fill:#122932;}
</style>
<g>
	<path class="st0" d="M175.9,197.8c24.6-4.8,48.6-11.4,71.4-18.6C217,123.7,179.5,73.6,135.4,31.3c-64.8,34.8-114.1,96.9-130,171
		C53.1,211.9,112,210.7,175.9,197.8z"/>
	<path class="st0" d="M418.6,60.1l-4.2,16.5c-6.6,26.4-62.4,64.2-135.6,91.5l-3.3,1.2c-29.7-56.1-67.2-107.1-111-151.2
		C192.7,7,223.6,0,255.7,0C313,0,366.4,20.2,409,52.3C412.3,54.7,415.6,57.1,418.6,60.1z"/>
	<path class="st0" d="M287.2,268.3c-7.8-21.3-16.5-42-26.1-62.1c-25.2,8.4-51.9,15.6-79.2,21c-29.7,6-68.4,11.4-109.2,11.4
		c-23.4,0-48.4-1.8-72.1-6.3C0,240.1,0.7,247.9,0.7,256c0,78.9,36,149.4,92.1,196.2c0.3-1.8,0.6-3.6,0.9-5.4
		C105.1,377.8,184.9,304.9,287.2,268.3z"/>
	<path class="st0" d="M297.1,296.5c20.4,64.2,31.8,133.9,33,204.4c-23.4,7.2-48.6,11.1-74.4,11.1c-48.3,0-93.6-14.5-132-37.9
		c-1.5-7.2-1.5-14.7-0.3-22.5C132.7,394.9,207.1,329.2,297.1,296.5z"/>
	<path class="st0" d="M509,292.3c-12.6,87.9-70.9,161.4-149.5,196.5c-2.1-69.6-14.1-137.4-34.2-201.3
		C392.5,268.9,456.2,271,509,292.3z"/>
	<path class="st0" d="M511.7,256v5.4c-57.3-21.3-125.2-22.2-196-2.1c-7.8-21.6-16.8-42.6-26.4-63c49.3-18.5,141.3-61.1,154.2-112.5
		C485.2,129.1,511.7,189.7,511.7,256z"/>
</g>
</svg>
