<svg id="regular" xmlns="http://www.w3.org/2000/svg" viewBox="0 0 512 512"><defs><style>.cls-1{fill:#122932;}.cls-2{fill:#ecf0f3;}</style></defs><circle class="cls-1" cx="256" cy="256" r="256"/><path class="cls-2" d="M156.37,355.54l18.83-41.76c20.2,14.72,50.33,25,79.09,25,32.87,0,46.22-11,46.22-25.68,0-44.85-139.34-14-139.34-103,0-40.75,32.87-74.64,101-74.64,30.13,0,60.94,7.19,83.2,21.22l-17.12,42.12c-22.26-12.67-45.2-18.83-66.42-18.83-32.87,0-45.54,12.32-45.54,27.39,0,44.16,139.35,13.69,139.35,101.68,0,40.06-33.21,74.3-101.69,74.3C216,383.28,177.6,372,156.37,355.54Z"/></svg>